<svg xmlns="http://www.w3.org/2000/svg" width="16" height="16.007" viewBox="0 0 16 16.007">
  <path d="M79.133,64.171a3.644,3.644,0,0,0-5.152,0l-3.21,3.21a.646.646,0,0,0,.913.913l3.21-3.21a2.352,2.352,0,0,1,4.014,1.661,2.328,2.328,0,0,1-.69,1.661l-3.209,3.21a.646.646,0,0,0,.915.913l3.21-3.21A3.642,3.642,0,0,0,79.133,64.171Zm-9.352,2.807a.643.643,0,0,0,.645-.645l0-2.589a.645.645,0,0,0-1.29,0v2.59a.633.633,0,0,0,.191.454A.646.646,0,0,0,69.781,66.978Zm7.727,8.5a.637.637,0,0,0-.456-.186.644.644,0,0,0-.457,1.1l1.831,1.829a.646.646,0,0,0,.913-.913Zm2.046-2.606h-2.59a.633.633,0,0,0-.454.191.643.643,0,0,0,.454,1.1l2.589,0a.645.645,0,0,0,0-1.29Zm-4.929,2.356a.643.643,0,0,0-.645.645l0,2.589a.645.645,0,0,0,1.29,0v-2.59a.633.633,0,0,0-.191-.454.646.646,0,0,0-.456-.189Zm-1.91-1.315-3.209,3.21A2.35,2.35,0,1,1,66.181,73.8l3.21-3.21a.646.646,0,0,0-.913-.913l-3.21,3.207a3.641,3.641,0,1,0,5.149,5.15l3.212-3.209a.646.646,0,0,0-.915-.913ZM66.9,66.728a.637.637,0,0,0,.456.186.644.644,0,0,0,.457-1.1l-1.831-1.828a.646.646,0,0,0-.913.913Zm-2.046,2.608h2.59a.633.633,0,0,0,.454-.191.643.643,0,0,0-.454-1.1l-2.589,0a.645.645,0,0,0,0,1.29Z" transform="translate(-64.2 -63.1)" fill="#007feb"/>
</svg>
