<svg
  xmlns="http://www.w3.org/2000/svg"
  width="16"
  height="15.06"
  viewBox="0 0 16 15.06"
>
  <path
    d="M140.577,181.268m3.218,3.679s-.078-.146-.167-.324l-2.338-4.675a.644.644,0,0,0-.525-.324h-1.937a.364.364,0,0,0-.363.363v.616a.364.364,0,0,0,.363.363h.616a.641.641,0,0,1,.523.325l1.657,3.348a.207.207,0,0,1-.2.325h-2.632a.364.364,0,0,0-.363.362v1.9a.364.364,0,0,1-.363.362h-4.561a.364.364,0,0,1-.363-.362v-1.9a.364.364,0,0,0-.363-.362H130.1a.2.2,0,0,1-.2-.322l1.733-3.359a.654.654,0,0,1,.529-.322h.6a.363.363,0,0,0,.363-.362v-.611a.363.363,0,0,0-.363-.362h-1.929a.646.646,0,0,0-.525.324l-2.349,4.675c-.09.178-.161.324-.158.324s0,.163,0,.362V188.6a.364.364,0,0,0,.363.362h15.27a.364.364,0,0,0,.363-.362v-3.295C143.8,185.11,143.8,184.947,143.795,184.947Zm-11.315-6.933h1.989V183.6h2.664v-5.584h2.1c.2,0,.254-.122.122-.271l-3.3-3.725a.31.31,0,0,0-.478,0l-3.218,3.72C132.224,177.891,132.28,178.014,132.48,178.014Z"
    transform="translate(-127.799 -173.907)"
    fill="#fff"
  />
</svg>
